<svg width="16" height="16" viewBox="0 0 16 16" fill="none" xmlns="http://www.w3.org/2000/svg">
<path d="M14.6 7.06677C14.4055 7.06677 14.2189 7.14399 14.0814 7.28149C13.9439 7.41899 13.8667 7.60558 13.8667 7.80006V13.6668H2.13315V1.93329H7.99992C8.2619 1.93329 8.504 1.79358 8.63499 1.56671C8.76599 1.33983 8.76599 1.06017 8.63499 0.833288C8.504 0.606405 8.26191 0.466705 7.99992 0.466705H1.39992C1.20545 0.466705 1.01885 0.543925 0.881346 0.681425C0.743846 0.818925 0.666626 1.00552 0.666626 1.2V14.4C0.666626 14.5945 0.743846 14.7811 0.881346 14.9186C1.01885 15.0561 1.20544 15.1333 1.39992 15.1333H14.5999C14.7944 15.1333 14.981 15.0561 15.1185 14.9186C15.256 14.7811 15.3332 14.5945 15.3332 14.4V7.8C15.3332 7.60553 15.256 7.41893 15.1185 7.28143C14.981 7.14393 14.7944 7.06671 14.5999 7.06671L14.6 7.06677Z" fill="#1B0D34"/>
<path d="M14.88 0.523179C14.7911 0.486348 14.696 0.467073 14.5998 0.466705H10.9331C10.6711 0.466705 10.429 0.606415 10.298 0.833288C10.167 1.06016 10.167 1.33982 10.298 1.56671C10.429 1.79359 10.6711 1.93329 10.9331 1.93329H12.8295L7.48128 7.28149H7.4814C7.33985 7.41813 7.25919 7.60583 7.25747 7.80251C7.25587 7.99931 7.33322 8.18836 7.47231 8.32746C7.61141 8.46656 7.80046 8.5439 7.99726 8.5423C8.19394 8.54059 8.38164 8.45993 8.51829 8.31838L13.8665 2.97018V4.86658C13.8665 5.12856 14.0062 5.37066 14.2331 5.50165C14.4599 5.63265 14.7396 5.63265 14.9665 5.50165C15.1934 5.37066 15.3331 5.12857 15.3331 4.86658V1.19981C15.3329 1.05482 15.2899 0.913142 15.2091 0.792711C15.1284 0.672154 15.0139 0.578359 14.8799 0.522991L14.88 0.523179Z" fill="#1B0D34"/>
</svg>
