<svg width="22" height="22" viewBox="0 0 22 22" fill="none" xmlns="http://www.w3.org/2000/svg">
<path d="M20.9002 9.76164C20.6085 9.76164 20.3285 9.87585 20.1223 10.0792C19.916 10.2826 19.8002 10.5586 19.8002 10.8462V19.5233H2.19979V2.16911H11C11.393 2.16911 11.7561 1.96248 11.9526 1.62692C12.1491 1.29137 12.1491 0.877749 11.9526 0.542184C11.7561 0.20662 11.393 0 11 0H1.09994C0.808245 0 0.528333 0.11421 0.322082 0.317576C0.115831 0.520941 0 0.796914 0 1.08455V20.6077C0 20.8953 0.115831 21.1713 0.322082 21.3746C0.528333 21.578 0.808222 21.6922 1.09994 21.6922H20.9001C21.1918 21.6922 21.4717 21.578 21.6779 21.3746C21.8842 21.1713 22 20.8953 22 20.6077V10.8461C22 10.5585 21.8842 10.2825 21.6779 10.0791C21.4717 9.87576 21.1918 9.76155 20.9001 9.76155L20.9002 9.76164Z" fill="#FF1EB7"/>
<path d="M21.3201 0.0835264C21.1868 0.0290523 21.0441 0.000543858 20.8999 0H15.3997C15.0067 0 14.6436 0.206634 14.4471 0.542185C14.2506 0.877736 14.2506 1.29136 14.4471 1.62693C14.6436 1.96249 15.0067 2.16911 15.3997 2.16911H18.2443L10.222 10.0792H10.2222C10.0098 10.2813 9.88885 10.5589 9.88627 10.8498C9.88387 11.1409 9.99989 11.4205 10.2085 11.6262C10.4172 11.832 10.7008 11.9464 10.996 11.944C11.291 11.9415 11.5725 11.8222 11.7775 11.6128L19.7998 3.70269V6.50751C19.7998 6.89499 20.0094 7.25306 20.3497 7.44681C20.69 7.64055 21.1095 7.64055 21.4499 7.44681C21.7902 7.25306 21.9997 6.895 21.9997 6.50751V1.08427C21.9996 0.869829 21.9349 0.66029 21.8137 0.48217C21.6928 0.303863 21.5209 0.165138 21.32 0.0832475L21.3201 0.0835264Z" fill="#FF1EB7"/>
</svg>
